<?xml version="1.0" encoding="utf-8"?>
<!-- Generator: Adobe Illustrator 16.0.0, SVG Export Plug-In . SVG Version: 6.00 Build 0)  -->
<!DOCTYPE svg PUBLIC "-//W3C//DTD SVG 1.1//EN" "http://www.w3.org/Graphics/SVG/1.1/DTD/svg11.dtd">
<svg version="1.1" id="图层_1" xmlns="http://www.w3.org/2000/svg" xmlns:xlink="http://www.w3.org/1999/xlink" x="0px" y="0px"
	 width="561.153px" height="809.09px" viewBox="0 0 561.153 809.09" enable-background="new 0 0 561.153 809.09"
	 xml:space="preserve">
<g transform="translate(0,-80)">
	<path fill="none" stroke="#000000" stroke-width="3" stroke-miterlimit="10" d="M559.653,872.192c0,8.227-6.313,15.397-14.1,15.397
		H15.6c-7.787,0-14.101-7.174-14.101-15.397V96.395C1.5,88.168,7.813,81.5,15.6,81.5h529.953c7.787,0,14.1,6.668,14.1,14.895
		V872.192L559.653,872.192z"/>
	<text transform="matrix(1 0 0 1 193.6221 141.5498)" font-family="'MicrosoftYaHei'" font-size="42.3022">个人履历</text>
	<line fill="none" stroke="#000000" stroke-miterlimit="10" x1="9.138" y1="160.229" x2="552.016" y2="160.229"/>
	<text transform="matrix(1 0 0 1 40.3945 202.752)" font-family="'MicrosoftYaHei'" font-size="23.9669">甘海彬</text>
	<circle fill="none" stroke="#000000" stroke-miterlimit="10" cx="43.625" cy="114.23" r="14.981"/>
	<text transform="matrix(1 0 0 1 40.4199 239.6631)" font-family="'MicrosoftYaHei'" font-size="18.801">男  |  1995年04月  |  北京师范大学珠海分校  |  软件工程 </text>
	<text transform="matrix(1 0 0 1 36.8291 278.1709)" font-family="'MicrosoftYaHei'" font-size="18.801">QQ：523796692  |  E-mail：</text>
	<text transform="matrix(1 0 0 1 289.6724 277.8486)" font-family="'MicrosoftYaHei-Bold'" font-size="18.801">ghb@soecode.com</text>
	<text transform="matrix(1 0 0 1 38.7422 326.6123)" font-family="'MicrosoftYaHei-Bold'" font-size="18.801">项目经验</text>
	<line fill="none" stroke="#000000" stroke-width="4" stroke-miterlimit="10" x1="29.113" y1="308.874" x2="29.113" y2="328.85"/>
	<text transform="matrix(1 0 0 1 28.6426 367.1865)" font-family="'MicrosoftYaHeiLight'" font-size="20.2076">2015 / 10 --至今                  </text>
	<text transform="matrix(1 0 0 1 280.4888 366.3643)" font-family="'MicrosoftYaHei-Bold'" font-size="20.2076">北师大行为习惯养成平台</text>
	<text transform="matrix(1 0 0 1 502.7739 367.1865)" font-family="'MicrosoftYaHeiLight'" font-size="20.2076"> </text>
	<text transform="matrix(1 0 0 1 28.6426 390.5264)" font-family="'MicrosoftYaHeiLight'" font-size="20.2076">开发语言：</text>
	
		<text transform="matrix(1 0 0 1 129.6816 391.4365)" font-family="'MicrosoftYaHeiLight'" font-size="20.2076" letter-spacing="27"> </text>
	<text transform="matrix(1 0 0 1 165.0459 391.4365)" font-family="'MicrosoftYaHeiLight'" font-size="20.2076">JAVA</text>
	<text transform="matrix(1 0 0 1 28.6426 414.7744)" font-family="'MicrosoftYaHeiLight'" font-size="20.2076">责任描述：</text>
	
		<text transform="matrix(1 0 0 1 129.6816 415.6846)" font-family="'MicrosoftYaHeiLight'" font-size="20.2076" letter-spacing="27"> </text>
	<text transform="matrix(1 0 0 1 165.0459 414.7744)" font-family="'MicrosoftYaHeiLight'" font-size="20.2076">负责服务号后台开发；部分前端开发；</text>
	<text transform="matrix(1 0 0 1 157.8994 439.9346)" font-family="'MicrosoftYaHeiLight'" font-size="20.2076"> 项目组长，负责项目组成员工作调度。</text>
	<text transform="matrix(1 0 0 1 28.6426 463.2725)" font-family="'MicrosoftYaHeiLight'" font-size="20.2076">技能收获：</text>
	
		<text transform="matrix(1 0 0 1 129.6816 464.1816)" font-family="'MicrosoftYaHeiLight'" font-size="20.2076" letter-spacing="27"> </text>
	<text transform="matrix(1 0 0 1 165.0459 463.2725)" font-family="'MicrosoftYaHeiLight'" font-size="20.2076">熟练SSH框架，微信API，项目管理。</text>
	<text transform="matrix(1 0 0 1 38.7422 508.748)" font-family="'MicrosoftYaHei-Bold'" font-size="18.801">在校情况 / 参加比赛</text>
	<line fill="none" stroke="#000000" stroke-width="4" stroke-miterlimit="10" x1="29.113" y1="491.008" x2="29.113" y2="510.985"/>
	<text transform="matrix(1 0 0 1 28.6426 542.1064)" font-family="'MicrosoftYaHeiLight'" font-size="18.801">连续两年获得专业奖学金 ， 专业排名前25%</text>
	<text transform="matrix(1 0 0 1 28.6426 565.374)" font-family="'MicrosoftYaHeiLight'" font-size="18.801">IT节（校级）三等奖 </text>
	<text transform="matrix(1 0 0 1 28.6426 587.2275)" font-family="'MicrosoftYaHeiLight'" font-size="18.801">北京师范大学珠海分校自强社 宣传部部长 </text>
	<text transform="matrix(1 0 0 1 28.6426 609.79)" font-family="'MicrosoftYaHeiLight'" font-size="18.801">第四届好丽友全国公益梦想实践大赛 | 全国金奖</text>
	<text transform="matrix(1 0 0 1 38.7422 656.8037)" font-family="'MicrosoftYaHei-Bold'" font-size="18.801">证书</text>
	<line fill="none" stroke="#000000" stroke-width="4" stroke-miterlimit="10" x1="29.113" y1="639.067" x2="29.113" y2="659.042"/>
	<text transform="matrix(1 0 0 1 396.4224 201.5791)" font-family="'MicrosoftYaHeiLight'" font-size="18.801">2013届在读生</text>
	<text transform="matrix(1 0 0 1 28.0566 692.04)" font-family="'MicrosoftYaHeiLight'" font-size="18.801">英语4级 | JAVA高级软件工程师职业技术证书</text>
	<text transform="matrix(1 0 0 1 38.7422 741.4092)" font-family="'MicrosoftYaHei-Bold'" font-size="18.801">自我评价</text>
	<line fill="none" stroke="#000000" stroke-width="4" stroke-miterlimit="10" x1="29.113" y1="724.846" x2="29.113" y2="744.821"/>
	<text transform="matrix(1 0 0 1 22.8467 778.583)" font-family="'MicrosoftYaHeiLight'" font-size="18.801">学习能力强，记得刚学J2EE时，快速边学边做web网站系统。</text>
	<text transform="matrix(1 0 0 1 22.8467 801.1436)" font-family="'MicrosoftYaHeiLight'" font-size="18.801">擅长JAVA编程，擅长数据收集和处理，做事认真努力。</text>
	<text transform="matrix(1 0 0 1 22.8467 823.7041)" font-family="'MicrosoftYaHeiLight'" font-size="18.801">喜欢看技术博客，时常会思考，领悟，并总结到自己的博客中</text>
	<text transform="matrix(1 0 0 1 22.8467 846.2666)" font-family="'MicrosoftYaHeiLight'" font-size="18.801">喜欢思考，喜欢创意，喜欢发呆，喜欢搞怪！！</text>
</g>
</svg>
