<?xml version="1.0" encoding="utf-8"?>
<!-- Generator: Adobe Illustrator 16.0.0, SVG Export Plug-In . SVG Version: 6.00 Build 0)  -->
<!DOCTYPE svg PUBLIC "-//W3C//DTD SVG 1.1//EN" "http://www.w3.org/Graphics/SVG/1.1/DTD/svg11.dtd">
<svg version="1.1" id="图层_1" xmlns="http://www.w3.org/2000/svg" xmlns:xlink="http://www.w3.org/1999/xlink" x="0px" y="0px"
	 width="555.014px" height="677.038px" viewBox="10 69 555.014 677.038" enable-background="new 10 69 555.014 677.038"
	 xml:space="preserve">
<g transform="translate(-30,-20)">
	<path fill="none" stroke="#000000" stroke-width="3" stroke-miterlimit="10" d="M593.514,751.277
		c0,6.873-6.244,13.261-13.945,13.261H55.446c-7.702,0-13.946-6.388-13.946-13.261v-648.33c0-6.875,6.244-12.448,13.946-12.448
		h524.123c7.701,0,13.945,5.572,13.945,12.448V751.277z"/>
	<text transform="matrix(1 0 0 1 231.5088 149.8877)" font-family="'MicrosoftYaHei'" font-size="41.8368">个人技能</text>
	<line fill="none" stroke="#000000" stroke-miterlimit="10" x1="49.054" y1="168.363" x2="585.96" y2="168.363"/>
	<circle fill="none" stroke="#000000" stroke-miterlimit="10" cx="83.162" cy="122.87" r="14.816"/>
	<text transform="matrix(1 0 0 1 84.96 212.3457)" font-family="'MicrosoftYaHei-Bold'" font-size="26.7291">专业技能</text>
	<line fill="none" stroke="#000000" stroke-width="4" stroke-miterlimit="10" x1="72.296" y1="188.7" x2="72.296" y2="216.592"/>
	<text transform="matrix(1 0 0 1 86.2656 395.3896)" font-family="'MicrosoftYaHei-Bold'" font-size="26.7291">技能使用时间</text>
	<line fill="none" stroke="#000000" stroke-width="4" stroke-miterlimit="10" x1="73.458" y1="369.993" x2="73.458" y2="400.209"/>
	<text transform="matrix(1 0 0 1 77.6416 433.436)" font-family="'MicrosoftYaHeiLight'" font-size="24.4048">Java</text>
	<text transform="matrix(1 0 0 1 124.1758 433.436)" font-family="'MicrosoftYaHeiLight'" font-size="24.4048" letter-spacing="29"> </text>
	<text transform="matrix(1 0 0 1 161.3154 433.436)" font-family="'MicrosoftYaHeiLight'" font-size="24.4048"> </text>
	<text transform="matrix(1 0 0 1 77.6416 462.7227)" font-family="'MicrosoftYaHeiLight'" font-size="24.4048">Mysql        </text>
	<text transform="matrix(1 0 0 1 77.6416 492.0078)" font-family="'MicrosoftYaHeiLight'" font-size="24.4048">J2EE</text>
	
		<text transform="matrix(1 0 0 1 126.1177 492.0078)" font-family="'MicrosoftYaHeiLight'" font-size="24.4048" letter-spacing="27"> </text>
	<text transform="matrix(1 0 0 1 161.3154 492.0078)" font-family="'MicrosoftYaHeiLight'" font-size="24.4048">      </text>
	<text transform="matrix(1 0 0 1 77.6416 521.293)" font-family="'MicrosoftYaHeiLight'" font-size="24.4048">JavaScript </text>
	<text transform="matrix(1 0 0 1 192.897 521.293)" font-family="'MicrosoftYaHeiLight'" font-size="24.4048" letter-spacing="2"> </text>
	<text transform="matrix(1 0 0 1 203.1523 521.293)" font-family="'MicrosoftYaHeiLight'" font-size="24.4048">   </text>
	<text transform="matrix(1 0 0 1 77.6416 550.5791)" font-family="'MicrosoftYaHeiLight'" font-size="24.4048">HTML          </text>
	<text transform="matrix(1 0 0 1 88.7925 608.3418)" font-family="'MicrosoftYaHei-Bold'" font-size="26.7291">额外技能</text>
	<line fill="none" stroke="#000000" stroke-width="4" stroke-miterlimit="10" x1="75.783" y1="581.502" x2="75.783" y2="615.203"/>
	<text transform="matrix(1 0 0 1 80.6577 649.8232)" font-family="'MicrosoftYaHeiLight'" font-size="22.3655">微信Api，百度Api</text>
	<text transform="matrix(1 0 0 1 80.6577 677.9053)" font-family="'MicrosoftYaHeiLight'" font-size="22.3655">3Q高，暖男满分 QAQ </text>
	<text transform="matrix(1 0 0 1 70.0898 249.2783)" font-family="'MicrosoftYaHeiLight'" font-size="22.0711">熟练JAVA</text>
	<text transform="matrix(1 0 0 1 70.0898 275.7646)" font-family="'MicrosoftYaHeiLight'" font-size="22.0711">熟悉主流开发框架，MVC，SSH </text>
	<text transform="matrix(1 0 0 1 70.0898 302.25)" font-family="'MicrosoftYaHeiLight'" font-size="22.0711">熟练使用MYSQL，熟悉使用SQL Server</text>
	<text transform="matrix(1 0 0 1 70.0898 328.7349)" font-family="'MicrosoftYaHeiLight'" font-size="22.0711">熟悉 HTML5 | CSS3 | Javascript | jQuery </text>
	<text transform="matrix(1 0 0 1 281.5859 431.8994)" font-family="'MicrosoftYaHeiLight'" font-size="24.4048">掌握</text>
	<text transform="matrix(1 0 0 1 281.5859 461.1846)" font-family="'MicrosoftYaHeiLight'" font-size="24.4048">熟悉</text>
	<text transform="matrix(1 0 0 1 281.5859 490.4707)" font-family="'MicrosoftYaHeiLight'" font-size="24.4048">熟悉</text>
	<text transform="matrix(1 0 0 1 281.5859 519.7559)" font-family="'MicrosoftYaHeiLight'" font-size="24.4048">熟悉</text>
	<text transform="matrix(1 0 0 1 281.5859 549.042)" font-family="'MicrosoftYaHeiLight'" font-size="24.4048">熟悉</text>
	<text transform="matrix(1 0 0 1 466.9385 433.4351)" font-family="'MicrosoftYaHeiLight'" font-size="24.4048">32月</text>
	<text transform="matrix(1 0 0 1 466.9385 462.7207)" font-family="'MicrosoftYaHeiLight'" font-size="24.4048">18月</text>
	<text transform="matrix(1 0 0 1 466.9385 492.0068)" font-family="'MicrosoftYaHeiLight'" font-size="24.4048">18月</text>
	<text transform="matrix(1 0 0 1 466.9385 521.293)" font-family="'MicrosoftYaHeiLight'" font-size="24.4048">17月</text>
	<text transform="matrix(1 0 0 1 466.9385 550.5791)" font-family="'MicrosoftYaHeiLight'" font-size="24.4048">17月</text>
</g>
</svg>
